<svg width="220" height="92" viewBox="0 0 220 92" fill="none" xmlns="http://www.w3.org/2000/svg">
<path d="M111.245 22.9916C115.899 30.4838 127.491 36.9395 141.451 40.5261C140.635 39.9683 139.981 39.4106 139.41 38.7718C131.165 36.0627 124.716 32.317 121.696 28.0127C115.654 19.1669 126.837 11.5156 146.594 10.8781C166.432 10.3203 187.576 17.0148 193.7 25.8605C197.046 30.8028 195.087 35.4248 189.209 38.6132L188.965 39.5692C198.599 35.3451 202.434 28.3317 197.699 20.6014C190.271 8.64701 164.882 -0.678855 141.043 0.0388054C117.286 0.676726 103.898 11.0367 111.245 22.9916Z" fill="#248DD8"/>
<path d="M145.942 35.505C148.227 38.9317 153.778 41.8003 160.31 43.2348C160.228 43.0761 160.147 42.9162 160.147 42.7572C155.82 41.6416 152.31 39.8084 150.757 37.6563C147.9 33.7515 152.881 30.1649 161.779 29.6872C170.677 29.208 180.31 32.0774 183.167 35.9826C184.963 38.4537 183.577 40.7649 180.148 42.2796V42.5981C185.209 40.6848 187.332 37.258 184.882 33.5916C181.453 28.2519 169.861 24.3471 159.166 24.8252C148.472 25.3825 142.513 30.1649 145.942 35.505Z" fill="#248DD8"/>
<path d="M171.577 40.446C173.209 40.446 174.516 41.0033 175.658 42.0391C176.801 43.1559 177.291 44.4301 177.291 46.0257C177.291 47.5387 176.719 48.8943 175.576 50.0094C174.434 51.1253 173.127 51.6831 171.577 51.6831C170.025 51.6831 168.637 51.1253 167.494 50.0094C166.432 48.8943 165.861 47.5387 165.861 46.0257C165.861 44.4301 166.432 43.1559 167.494 42.1188C168.637 41.0033 169.943 40.446 171.577 40.446Z" fill="#248DD8"/>
<path fill-rule="evenodd" clip-rule="evenodd" d="M60.5698 60.4713C56.77 56.3591 52.1174 54.3032 46.6095 54.3032C41.4405 54.3573 37.0866 56.0286 33.5503 59.3169C29.5241 63.0829 27.5107 67.6062 27.5107 72.8818C27.5107 75.9347 28.2441 78.8123 29.7125 81.5173C31.316 84.4896 33.5966 86.8615 36.5598 88.6406C39.6292 90.4672 42.9708 91.3844 46.5847 91.3844C50.1441 91.3844 53.4172 90.4829 56.4068 88.6795C59.2593 86.9822 61.4999 84.6735 63.1318 81.7549C64.7068 78.9466 65.4951 76.0685 65.4951 73.1219C65.4951 68.1892 63.8524 63.9737 60.5698 60.4713ZM39.8952 67.1476C41.7132 65.0421 43.9384 63.989 46.574 63.989C48.6646 64.0431 50.5094 64.7368 52.1128 66.0688C54.2299 67.8545 55.2905 70.1451 55.2905 72.9422C55.2905 75.1046 54.529 77.061 53.0098 78.821C51.3266 80.741 49.1806 81.6987 46.574 81.6987C44.2665 81.6987 42.2689 80.9158 40.5861 79.3395C38.7657 77.6361 37.8571 75.4744 37.8571 72.8624C37.8571 70.5991 38.5351 68.6932 39.8952 67.1476Z" fill="#A9AFB5"/>
<path d="M20.1259 90.4156H23.1019V80.8687H20.4511C17.8643 80.8687 15.8584 80.5005 14.4301 79.7552C13.1918 79.0937 12.2019 78.1447 11.4598 76.9118C10.7162 75.6798 10.3464 74.3477 10.3464 72.9124C10.3464 71.5072 10.7091 70.1967 11.438 68.9766C12.1664 67.7574 13.1501 66.8146 14.3875 66.1506C15.8187 65.3553 17.8535 64.9574 20.4932 64.9574H23.1019V55.4105H20.0441C17.4792 55.4105 15.5572 55.5311 14.2772 55.7687C10.5121 56.4847 7.27866 58.2873 4.58154 61.1782C1.52539 64.4405 0 68.3519 0 72.9124C0 76.1743 0.817232 79.1714 2.45376 81.902C4.03452 84.5045 6.20237 86.5715 8.95774 88.111C10.6496 89.0385 12.2242 89.6549 13.6835 89.9594C15.1407 90.2648 17.2887 90.4156 20.1259 90.4156Z" fill="#A9AFB5"/>
<path d="M92.9402 90.4156H103.145V71.9435C103.145 68.6994 102.685 65.9672 101.763 63.7444C100.842 61.522 99.3512 59.5739 97.292 57.8969C94.3375 55.5006 90.9624 54.3032 87.1691 54.3032C84.5675 54.3032 82.1025 54.9019 79.7723 56.1001C77.5759 57.2458 75.7328 58.8025 74.243 60.7696C73.0779 62.3392 72.2652 63.9761 71.8045 65.6792C71.3442 67.3831 71.1137 69.5894 71.1137 72.3051V90.4156H81.3184V71.9026L81.3188 71.6762C81.3192 71.5432 81.3196 71.4139 81.3208 71.2874L81.3241 70.9305C81.3299 70.4483 81.3407 70.0232 81.3564 69.6555C81.3799 69.1051 81.4142 68.6829 81.4601 68.3883C81.553 67.7743 81.7633 67.1629 82.0914 66.5485C82.5785 65.7511 83.309 65.0785 84.2836 64.5314C85.2579 63.9865 86.2346 63.7117 87.2113 63.7117C88.1587 63.7117 89.1064 63.9799 90.0546 64.512C91.0029 65.0458 91.6937 65.7251 92.1275 66.5506C92.6679 67.5103 92.9402 69.2683 92.9402 71.825V90.4156Z" fill="#A9AFB5"/>
<path d="M131.276 65.3359V56.2595C127.877 54.956 124.94 54.3032 122.467 54.3032C118.877 54.3032 115.806 55.2072 113.25 57.0144C110.15 59.1938 108.599 62.2115 108.599 66.0643C108.599 69.2815 109.691 71.8721 111.879 73.84C113.228 75.0633 115.36 76.045 118.277 76.7883C120.327 77.2948 121.638 77.7295 122.205 78.0881C122.772 78.4442 123.056 79.0115 123.056 79.7812C123.056 81.4281 121.537 82.2523 118.501 82.2523C117.008 82.2523 115.606 82.0358 114.291 81.5991C112.975 81.1599 111.222 80.3303 109.025 79.1086V89.0236C112.317 90.5044 115.83 91.246 119.559 91.246C123.479 91.246 126.65 90.3333 129.073 88.5022C131.959 86.3253 133.403 83.3984 133.403 79.7073C133.403 76.2611 132.229 73.4615 129.881 71.3122C129.088 70.5991 128.207 70.0215 127.237 69.5827C126.267 69.1477 124.787 68.6345 122.795 68.0507C122.23 67.8917 121.734 67.7351 121.307 67.5814C120.916 67.4409 120.583 67.3029 120.307 67.167C120.08 67.0559 119.892 66.9464 119.743 66.8381C119.211 66.4535 118.946 65.9709 118.946 65.3871C118.946 63.9022 120.37 63.1585 123.22 63.1585C125.821 63.1585 128.508 63.8848 131.276 65.3359Z" fill="#A9AFB5"/>
<path d="M157.439 90.4156H160.415V80.8687H157.765C155.178 80.8687 153.172 80.5005 151.743 79.7552C150.505 79.0937 149.516 78.1447 148.774 76.9118C148.029 75.6798 147.659 74.3477 147.659 72.9124C147.659 71.5072 148.023 70.1967 148.751 68.9766C149.48 67.7574 150.463 66.8146 151.701 66.1506C153.132 65.3553 155.167 64.9574 157.806 64.9574H160.415V55.4105H157.357C154.793 55.4105 152.87 55.5311 151.59 55.7687C147.826 56.4847 144.592 58.2873 141.895 61.1782C138.839 64.4405 137.313 68.3519 137.313 72.9124C137.313 76.1743 138.13 79.1714 139.767 81.902C141.349 84.5045 143.516 86.5715 146.271 88.111C147.963 89.0385 149.537 89.6549 150.997 89.9594C152.454 90.2648 154.602 90.4156 157.439 90.4156Z" fill="#A9AFB5"/>
<path d="M177.046 55.3498H166.76V90.4156H177.046V55.3498Z" fill="#A9AFB5"/>
<path fill-rule="evenodd" clip-rule="evenodd" d="M220 90.4156H209.795V87.5486C206.553 89.7388 203.364 90.8308 200.233 90.8308C197.427 90.8308 194.69 90.0524 192.019 88.4894C189.348 86.952 187.212 84.9114 185.604 82.3688C183.779 79.4309 182.867 76.3045 182.867 72.9926C182.867 67.9342 184.742 63.6299 188.498 60.08C192.088 56.6901 196.386 54.9953 201.394 54.9953C205.555 54.9953 209.295 56.2273 212.614 58.6873C215.226 60.5944 217.11 62.8383 218.266 65.4201C219.422 68.0016 220 71.211 220 75.0485V90.4156ZM201.362 64.6806C198.721 64.6806 196.584 65.7056 194.949 67.7508C193.695 69.2919 193.071 71.0313 193.071 72.9731C193.071 75.4182 193.968 77.4766 195.766 79.1495C197.371 80.6674 199.278 81.4219 201.484 81.4219C204.097 81.4219 206.195 80.3989 207.776 78.3521C209.027 76.7325 209.654 74.9939 209.654 73.131C209.654 70.5297 208.617 68.3495 206.549 66.5939C205.105 65.3726 203.377 64.7347 201.362 64.6806Z" fill="#A9AFB5"/>
</svg>
